# xmcd
#
# Track frame offsets: 
#        150
#        17445
#        37142
#        54321
#        71423
#        85901
#        101020
#        112160
#        124420
#        141127
#        157367
#        174951
#        190299
#        206795
#
# Disc length: 2974 seconds
#
# Revision: 0
# Processed by: cddbd v1.5.2PL0 Copyright (c) Steve Scherf et al.
# Submitted via: ExactAudioCopy v0.99pb4
#
DISCID=cd0b9c0e
DTITLE=鄧麗君 - 鄧麗君
DYEAR=1900
DGENRE=
TTITLE0=北國之春
TTITLE1=問自己
TTITLE2=情人的關懷
TTITLE3=今夜想起你
TTITLE4=海韻
TTITLE5=四個願望
TTITLE6=不是春雨沒有來
TTITLE7=藍色的姑娘
TTITLE8=前生有緣
TTITLE9=絲絲小雨
TTITLE10=那句諾言
TTITLE11=甜蜜小雨
TTITLE12=漫步人生路
TTITLE13=冬之戀情
EXTD=
EXTT0=
EXTT1=
EXTT2=
EXTT3=
EXTT4=
EXTT5=
EXTT6=
EXTT7=
EXTT8=
EXTT9=
EXTT10=
EXTT11=
EXTT12=
EXTT13=
PLAYORDER=
